<svg fill="none" height="1080" viewBox="0 0 1920 1080" width="1920" xmlns="http://www.w3.org/2000/svg">
  <path d="M1920 0H0V1080H1920V0Z" fill="#F0F0F0"/>
  <path
    d="M960 714C1056.1 714 1134 636.098 1134 540C1134 443.902 1056.1 366 960 366C863.902 366 786 443.902 786 540C786 636.098 863.902 714 960 714Z"
    fill="white"/>
  <path
    d="M1004.67 492.542C1009.3 492.542 1013.04 496.282 1013.04 500.917V579.083C1013.04 583.717 1009.3 587.458 1004.67 587.458H915.333C910.699 587.458 906.958 583.717 906.958 579.083V500.917C906.958 496.282 910.699 492.542 915.333 492.542H1004.67ZM1004.67 484.167H915.333C906.065 484.167 898.583 491.648 898.583 500.917V579.083C898.583 588.352 906.065 595.833 915.333 595.833H1004.67C1013.93 595.833 1021.42 588.352 1021.42 579.083V500.917C1021.42 491.648 1013.93 484.167 1004.67 484.167Z"
    fill="#B8B8B8"/>
  <path
    d="M988.475 523.418C994.642 523.418 999.642 518.418 999.642 512.251C999.642 506.084 994.642 501.084 988.475 501.084C982.308 501.084 977.309 506.084 977.309 512.251C977.309 518.418 982.308 523.418 988.475 523.418Z"
    fill="#B8B8B8"/>
  <path
    d="M930.799 524.032C932.418 524.032 936.55 524.478 939.006 528.778L957.878 561.273C959.386 563.841 962.121 565.46 965.136 565.46C968.151 565.46 970.887 563.897 972.395 561.273L977.922 551.725C979.653 548.71 982.556 548.375 983.729 548.375C984.901 548.375 987.805 548.71 989.536 551.725L1009.41 585.951C1008.52 586.621 1007.46 587.068 1006.34 587.291C1005.78 587.403 1005.22 587.458 1004.67 587.458H915.333C910.699 587.458 906.958 583.718 906.958 579.083V555.689L922.591 528.778C925.048 524.534 929.18 524.032 930.799 524.032ZM930.799 515.657C924.825 515.657 918.795 518.616 915.333 524.59L898.583 553.456V579.083C898.583 588.352 906.065 595.833 915.333 595.833H1004.67C1005.78 595.833 1006.9 595.722 1007.96 595.498C1008.02 595.498 1008.07 595.498 1008.07 595.443C1013.1 594.382 1017.23 591.088 1019.46 586.621L996.738 547.482C993.835 542.457 988.754 539.944 983.673 539.944C978.592 539.944 973.511 542.457 970.608 547.482L965.081 557.029L946.265 524.59C942.803 518.616 936.829 515.657 930.799 515.657Z"
    fill="#B8B8B8"/>
</svg>
